<svg width="18" height="18" viewBox="0 0 18 18" fill="none" xmlns="http://www.w3.org/2000/svg">
<path fill-rule="evenodd" clip-rule="evenodd" d="M2.04045 0.344465C1.64993 -0.0460589 1.01676 -0.0460586 0.626238 0.344465C0.235713 0.73499 0.235713 1.36815 0.626238 1.75868L7.55597 8.68841L0.343943 15.9004C-0.0465813 16.291 -0.046581 16.9241 0.343943 17.3146C0.734468 17.7052 1.36763 17.7052 1.75816 17.3146L8.97018 10.1026L16.1826 17.315C16.5731 17.7056 17.2063 17.7056 17.5968 17.315C17.9873 16.9245 17.9873 16.2913 17.5968 15.9008L10.3844 8.68841L17.3145 1.7583C17.705 1.36777 17.705 0.734608 17.3145 0.344084C16.924 -0.0464403 16.2908 -0.0464403 15.9003 0.344084L8.97018 7.2742L2.04045 0.344465Z" fill="#828282"/>
</svg>
